<?xml version="1.0" encoding="UTF-8" standalone="no"?>
<!-- Created with Inkscape (http://www.inkscape.org/) -->

<svg
   width="170mm"
   height="170mm"
   viewBox="0 0 170.00002 170"
   version="1.1"
   id="svg1"
   inkscape:version="1.3 (0e150ed6c4, 2023-07-21)"
   sodipodi:docname="Logo_v2.svg"
   xml:space="preserve"
   inkscape:export-filename="Rendered_v2\Logo_BG_x192.png"
   inkscape:export-xdpi="27.443518"
   inkscape:export-ydpi="27.443518"
   xmlns:inkscape="http://www.inkscape.org/namespaces/inkscape"
   xmlns:sodipodi="http://sodipodi.sourceforge.net/DTD/sodipodi-0.dtd"
   xmlns="http://www.w3.org/2000/svg"
   xmlns:svg="http://www.w3.org/2000/svg"><sodipodi:namedview
     id="namedview1"
     pagecolor="#ffffff"
     bordercolor="#666666"
     borderopacity="1.0"
     inkscape:showpageshadow="2"
     inkscape:pageopacity="0.0"
     inkscape:pagecheckerboard="true"
     inkscape:deskcolor="#d1d1d1"
     inkscape:document-units="mm"
     showgrid="true"
     inkscape:zoom="0.5265978"
     inkscape:cx="372.20057"
     inkscape:cy="196.54469"
     inkscape:window-width="1920"
     inkscape:window-height="1001"
     inkscape:window-x="-9"
     inkscape:window-y="-9"
     inkscape:window-maximized="1"
     inkscape:current-layer="layer1"
     showguides="true" /><defs
     id="defs1"><clipPath
       clipPathUnits="userSpaceOnUse"
       id="clipPath849"><path
         d="M 0,583.94 H 810.71 V 0 H 0 Z"
         id="path847" /></clipPath><filter
       style="color-interpolation-filters:sRGB"
       inkscape:label="Drop Shadow"
       id="filter1182"
       x="-0.048917849"
       y="-0.058067947"
       width="1.0978357"
       height="1.1161359"><feFlood
         flood-opacity="0.501961"
         flood-color="rgb(0,0,0)"
         result="flood"
         id="feFlood1172" /><feComposite
         in="flood"
         in2="SourceGraphic"
         operator="out"
         result="composite1"
         id="feComposite1174" /><feGaussianBlur
         in="composite1"
         stdDeviation="5"
         result="blur"
         id="feGaussianBlur1176" /><feOffset
         dx="0"
         dy="0"
         result="offset"
         id="feOffset1178" /><feComposite
         in="offset"
         in2="SourceGraphic"
         operator="atop"
         result="composite2"
         id="feComposite1180" /></filter><filter
       style="color-interpolation-filters:sRGB;"
       inkscape:label="Drop Shadow"
       id="filter1390"
       x="-0.022656388"
       y="-0.022656515"
       width="1.0453128"
       height="1.045313"><feFlood
         result="flood"
         in="SourceGraphic"
         flood-opacity="0.501961"
         flood-color="rgb(0,0,0)"
         id="feFlood1389" /><feGaussianBlur
         result="blur"
         in="SourceGraphic"
         stdDeviation="1.500000"
         id="feGaussianBlur1389" /><feOffset
         result="offset"
         in="blur"
         dx="0.000000"
         dy="0.000000"
         id="feOffset1389" /><feComposite
         result="comp1"
         operator="out"
         in="flood"
         in2="offset"
         id="feComposite1389" /><feComposite
         result="comp2"
         operator="atop"
         in="comp1"
         in2="SourceGraphic"
         id="feComposite1390" /></filter></defs><g
     inkscape:groupmode="layer"
     id="layer2"
     inkscape:label="BG"
     transform="matrix(1.0624999,0,0,1.0624999,-5.3124958,-5.3124958)"><rect
       style="opacity:1;fill:#e6b200;fill-opacity:1;stroke:#000000;stroke-width:1;stroke-dasharray:none;stroke-opacity:1;paint-order:stroke markers fill"
       id="rect1391"
       width="138.51848"
       height="138.51848"
       x="15.740763"
       y="15.740763"
       ry="69.259239"
       rx="69.259239" /></g><g
     inkscape:label="Ebene 1"
     inkscape:groupmode="layer"
     id="layer1"
     transform="translate(-13.497919,-40.269792)"><g
       id="g1363"
       style="display:none;filter:url(#filter1390)"
       inkscape:label="Logo_Dark"><path
         id="path9"
         style="fill:#333333;fill-opacity:1;fill-rule:nonzero;stroke:#000000;stroke-width:0.5;stroke-miterlimit:4;stroke-dasharray:none;stroke-opacity:1"
         d="m 45.379092,40.269817 c -22.875546,0 -31.546965,14.316945 -31.866372,39.674064 h -0.0148 v 0.65164 89.674119 c 0,25.79095 8.808382,40.00013 31.881193,40.00013 h 95.620497 c 23.07433,0 42.49851,-14.20918 42.49831,-40.00013 v -12.45403 -19.86132 c 0,-12.88928 -15.64323,-37.87573 -31.874,-37.87573 h -9.037 c -11.267,0 -15.15761,6.57408 -22.69272,14.69007 l 0.001,0.006 c -0.0962,0.10321 -0.1937,0.20023 -0.28989,0.30386 -7.53506,-8.11599 -9.83715,-14.9996 -21.104133,-14.9996 -23.072817,0 -35.048624,12.09716 -35.048624,37.87571 0,0 0.04536,2.3152 0,19.86132 5.593294,5.59329 27.599355,0 27.599355,0 l -5.3e-4,-19.86132 c -2.65e-4,-10.00515 -1.495937,-15.37632 7.449541,-15.37632 8.954961,0 7.449281,5.37118 7.449541,15.37632 l 5.1e-4,19.86132 c 0,0 21.09369,6.50496 27.59879,-1.3e-4 l 1.2e-4,-19.86132 c 0.12328,-10.00449 0.0821,-14.31786 9.03704,-14.31786 8.94548,0 9.03726,4.31283 9.037,14.31799 l 2.1e-4,19.86119 -5.5e-4,1.3e-4 h 5.5e-4 v 12.45402 c 2e-5,10.00691 -1.67796,10.00042 -10.62499,10.00042 H 56.003702 c -8.945419,0 -10.624419,0.006 -10.624441,-10.00042 l -5.44e-4,-89.674427 c 0,-10.006907 1.679566,-10.325468 10.624985,-10.325468 h 84.995908 c 8.94703,0 0.61753,9.999906 10.62444,9.999906 h 31.87387 c 0,-25.79096 -19.42398,-40.000142 -42.49831,-40.000142 z"
         sodipodi:nodetypes="scccsssccssscccsscccsscccsccccsssccssscss"
         inkscape:label="MG_Dark" /><path
         id="path812"
         style="display:inline;opacity:1;fill:#e6e6e6;stroke-width:0.50317;paint-order:stroke markers fill"
         inkscape:label="Pattern"
         d="m 53.740941,40.269792 -1.56993,3.151746 10.480497,2.009179 2.570386,-5.160925 z m 19.894393,0 3.74344,0.717786 0.357601,-0.717786 z m 17.649051,0 -1.53789,3.0887 10.480495,2.009697 2.53887,-5.098397 z m 20.251475,0 3.41788,0.655257 0.32608,-0.655257 z m 17.29249,0 -1.5074,3.026689 10.48049,2.009696 2.50838,-5.036385 z m -88.799234,0.327629 c -0.520075,0.05929 -1.03475,0.123826 -1.537374,0.201021 l 1.312065,0.251664 z m 75.595904,1.056266 -3.03082,6.085417 10.48049,2.009696 3.03083,-6.085417 z m 37.52897,0.02945 -2.98483,5.99395 10.4805,2.009696 2.20865,-4.435388 c -3.02609,-1.533043 -6.26927,-2.74371 -9.70432,-3.568258 z m -75.104456,0.03359 -3.030306,6.085417 10.480498,2.009179 3.030822,-6.085416 z m -37.57445,0.06201 -3.030823,6.085416 10.481014,2.009697 3.030306,-6.085933 z m 97.998156,4.255554 -3.03083,6.085933 10.4805,2.00918 3.03082,-6.085417 z m -37.57549,0.06305 -3.030304,6.085417 10.479464,2.00918 3.03031,-6.085417 z m -37.575482,0.06201 -3.030823,6.085417 10.480497,2.009179 3.030823,-6.085416 z m -37.574967,0.06201 -3.030306,6.085416 10.480497,2.009697 3.030306,-6.085417 z m 135.572599,4.193542 -3.0303,6.085417 10.4805,2.009696 3.03082,-6.085416 z m -37.57496,0.06304 -3.03031,6.085417 10.4805,2.00918 3.0303,-6.085417 z m -37.574971,0.06201 -3.030306,6.085417 10.480497,2.00918 3.030823,-6.085417 z m -37.574451,0.06201 -3.030822,6.085417 10.481014,2.009696 3.030306,-6.085417 z m -28.767753,1.751314 c -1.164195,1.834697 -2.155124,3.867164 -2.979146,6.095235 l 1.621606,0.311092 3.030823,-6.085416 z m 126.765385,2.505274 -3.0303,6.085416 10.4805,2.00918 3.0303,-6.085417 z m -37.57496,0.06201 -3.03031,6.085417 10.4805,2.009696 3.0303,-6.085933 z m -37.574454,0.06201 -3.030823,6.085417 10.480498,2.009696 3.030822,-6.085417 z m -37.575484,0.06305 -3.030306,6.085417 10.480497,2.00918 3.030306,-6.085417 z m 135.573118,4.193543 -3.03082,6.085416 10.48101,2.00918 2.64429,-5.310787 c -0.15321,-0.318061 -0.31513,-0.62858 -0.47646,-0.939994 z m -37.57497,0.06201 -3.0303,6.085417 10.4805,2.009697 3.0303,-6.085417 z m -37.574963,0.06201 -3.030306,6.085934 10.479459,2.009179 3.03083,-6.085933 z m -37.576001,0.06253 -3.030306,6.085933 10.480497,2.00918 3.030306,-6.085417 z m -37.574967,0.06253 -3.030306,6.085417 10.480497,2.00918 3.030823,-6.085417 z m 135.573121,4.193543 -3.03031,6.085416 10.4805,2.00918 3.03031,-6.085417 z m -37.57497,0.06201 -3.0303,6.085417 2.29856,0.4408 h 8.96328 l 2.24896,-4.51652 z m -37.574966,0.06253 -3.030306,6.085933 1.970422,0.377755 h 9.322429 l 2.217952,-4.453992 z m -37.574968,0.06253 -3.030306,6.085417 8.512142,1.631942 c 0.662044,-0.524084 1.55731,-0.821664 2.65927,-1.010275 l 2.339392,-4.697904 z m -27.179736,2.0557 c -0.02091,0.109806 -0.04732,0.213032 -0.0677,0.323494 l 0.152962,-0.306958 z m 162.75286,2.137854 -3.03083,6.085416 8.75554,1.678968 c -0.22281,-2.427778 -0.66667,-4.711442 -1.23972,-6.904488 z m -37.57497,0.06201 -1.06867,2.145605 h 2.08153 c 4.88725,0 4.64737,2.971411 5.02915,5.67924 l 1.40818,0.270268 3.03031,-6.085417 z m -37.57497,0.06305 -1.03714,2.08256 h 11.48095 l 0.0367,-0.07338 z m -37.574966,0.06201 -1.00614,2.020549 h 11.480953 l 0.0057,-0.01137 z m -37.574967,0.06253 -3.030306,6.0849 10.480497,2.009696 3.030306,-6.0849 z m 135.573123,4.193026 -3.03083,6.085416 8.75864,1.679484 h 1.88671 l 2.86597,-5.755204 z M 13.864305,73.009912 c -0.17947,2.115151 -0.304075,4.299998 -0.340031,6.601148 l 6.460071,1.238684 3.030306,-6.085417 z m 134.242965,3.938261 -0.94878,1.904794 c 0.78753,0.84957 2.10613,1.416967 4.46536,1.416967 h 6.31021 l 0.65371,-1.312064 z m -112.724899,0.187069 -3.030822,6.085933 10.481014,2.00918 2.56005,-5.140771 c 0.0026,-0.374037 0.01964,-0.683439 0.02791,-1.029395 z m -14.726749,4.44314 -3.030306,6.085416 10.480497,2.00918 3.030306,-6.085417 z m 22.847184,4.380611 -3.030823,6.085417 4.906677,0.940511 v -6.66626 z m -30.004887,1.513603 v 6.402193 l 2.910417,-5.844088 z m 15.27762,2.929536 -3.030306,6.085417 10.480498,2.009697 3.030306,-6.085417 z m -14.726749,4.442623 -0.550871,1.106393 v 5.454962 l 8.001062,1.53376 3.030306,-6.085418 z m 22.847184,4.380612 -3.030306,6.085413 10.480497,2.0097 1.032495,-2.07378 v -4.39456 z m 112.208136,0.853173 -2.51251,5.04569 10.4805,2.00918 2.53783,-5.09581 c -2.60193,-1.21566 -5.2819,-1.95906 -7.98608,-1.95906 z m -51.101272,0.0176 c -3.663588,0.0287 -7.027775,0.38357 -10.119795,1.03818 l 8.765873,1.68052 z m 36.883542,1.32654 c -0.76806,0.30128 -1.50129,0.64461 -2.19935,1.03559 l 1.53685,0.29456 z m -50.34887,0.58136 c -3.176683,0.98505 -5.998557,2.36163 -8.465633,4.13256 l 5.849256,1.1219 z m 50.35662,1.47743 -3.03031,6.08541 10.4805,2.00918 3.0303,-6.08541 z m -37.574971,0.0625 -3.030823,6.08541 10.481014,2.0097 3.03031,-6.08593 z m -75.149935,0.12454 -3.030306,6.08541 10.480498,2.00918 3.030306,-6.08541 z m 87.507836,0.19172 -0.66042,1.32601 2.52181,0.48369 c -0.60557,-0.63677 -1.21658,-1.26414 -1.86139,-1.8097 z m 48.06528,4.00182 -3.0303,6.08542 10.4805,2.00918 3.0303,-6.08542 z m -75.14993,0.12454 -3.030306,6.08593 10.480497,2.00918 3.030306,-6.08541 z m -37.574968,0.0625 -3.030306,6.08541 3.391524,0.65009 v -6.66626 z m 80.171338,0.83819 c -1.59415,1.74307 -3.25351,3.66674 -5.11855,5.68544 l 7.54682,1.44694 3.03082,-6.08542 z m -111.690861,0.38551 v 6.66626 l 1.394747,0.26768 3.030306,-6.08542 z m 156.007011,0.0997 -0.0656,0.13229 0.231,0.0444 c -0.0557,-0.0581 -0.10941,-0.11901 -0.16537,-0.17673 z m -26.48985,2.93264 -3.03031,6.08541 10.4805,2.0097 3.03031,-6.08542 z m -37.57445,0.0625 -3.03083,6.08541 10.4805,2.00918 3.03082,-6.08541 z m -75.150971,0.12454 -3.030823,6.08541 10.481014,2.0097 3.030306,-6.08593 z m 39.368656,0.28112 c -1.221262,1.82039 -2.263259,3.84183 -3.124357,6.06733 l 8.78086,1.68361 3.030306,-6.08541 z m 48.033245,0.12247 -0.55501,1.11414 1.84124,0.35295 c -0.44588,-0.49541 -0.87355,-0.98366 -1.28623,-1.46709 z m 48.17174,3.78995 -3.03031,6.08542 10.47946,2.00969 3.03031,-6.08593 z m -37.57549,0.062 -3.03082,6.08542 10.4805,2.00969 3.03082,-6.08541 z m -37.574966,0.0625 -3.030306,6.08542 5.39657,1.03456 c 1.129088,-0.88618 2.826623,-1.35186 5.421891,-1.35186 0.288836,0 0.53713,0.0209 0.804602,0.032 l 1.887739,-3.79098 z m -75.149935,0.12454 -2.06499,4.14703 v 2.12339 l 9.515181,1.82469 3.030306,-6.08541 z m 135.572601,4.19354 -2.06757,4.1522 c 0.75485,0.62424 1.29271,1.43201 1.66553,2.43758 l 7.85223,1.50534 3.03031,-6.08542 z m -37.57445,0.0625 -3.03082,6.08542 10.4805,2.00918 3.03082,-6.08542 z m -37.575482,0.0625 -3.030306,6.08542 10.480497,2.00969 3.030306,-6.08541 z m -37.574451,0.062 -3.030823,6.08593 9.998873,1.91668 -5.17e-4,-6.66626 z m 135.572603,4.19354 -3.03031,6.08594 10.4805,2.00918 1.04128,-2.09083 c -0.41721,-1.51452 -0.93377,-3.07617 -1.58802,-4.68034 z m -150.300903,0.25012 -3.029789,6.0849 10.480497,2.00918 3.029789,-6.0849 z m 40.780973,0.55139 c -0.379502,2.05148 -0.667711,4.20664 -0.826823,6.50864 l 5.071009,0.97204 3.030822,-6.08542 z m 41.19283,0.632 c 0.39981,1.70563 0.4102,4.06881 0.35554,6.73447 l 0.27182,0.0522 3.0303,-6.08541 z m 53.60035,3.00963 -3.03031,6.08542 10.47947,2.00918 3.0303,-6.08542 z m -37.576,0.0625 -3.03031,6.08542 10.4805,2.00969 3.03031,-6.08593 z m -37.574968,0.062 -3.030306,6.08542 9.975619,1.91306 v -0.1204 c -6.6e-5,-2.47865 -0.09089,-4.66532 -0.09302,-6.56394 z m 49.765438,0.59015 -0.49299,0.99012 0.36483,0.0698 c 0.0296,-0.37988 0.0864,-0.70846 0.12816,-1.05988 z m -120.373531,0.40566 v 6.66677 l 2.90835,0.55759 3.030306,-6.08593 z m 31.881258,1.38079 -1.878438,3.77135 1.878438,0.36018 z m 136.724983,1.87947 -3.0303,6.08542 4.42402,0.84801 v -3.31194 c 0,-1.05818 -0.14163,-2.21974 -0.34417,-3.42046 z m -75.14993,0.12454 -0.98185,1.97146 c -0.008,0.54536 -0.0217,0.94976 -0.0217,1.52601 v 2.97707 l 8.45375,1.62058 3.03031,-6.08542 z m -37.574967,0.0631 -3.030306,6.0849 10.480497,2.00918 3.030306,-6.0849 z m -37.574968,0.062 -3.030306,6.08542 10.480497,2.00969 3.030306,-6.08541 z m 119.806125,1.17099 c 0.005,0.71912 0.0135,1.41212 0.0134,2.20142 v 4.46742 l 0.35554,0.0682 3.0303,-6.08542 z m 15.767,3.02255 -3.03083,6.08542 10.48102,2.0097 3.0303,-6.08542 z m -37.57497,0.062 -3.03031,6.08593 6.77788,1.29914 v -6.66626 z m -112.725938,0.18706 -3.030306,6.08542 10.480497,2.0097 3.030306,-6.08542 z m 46.375981,1.62523 c 0.0018,0.16116 -0.0028,3.16897 0,3.69486 l 1.679484,-3.37292 z m 27.598832,0.61236 -1.854151,3.72329 1.854151,0.35553 z m 61.599345,1.95647 -1.02682,2.06138 5.2e-4,4.40851 8.47545,1.62471 3.03031,-6.08542 z m -37.57601,0.0625 -3.0303,6.0849 10.4805,2.00918 3.0303,-6.0849 z m -37.574963,0.062 -3.030306,6.08542 10.480497,2.0097 3.030306,-6.08594 z m -37.574967,0.062 -3.030306,6.08541 8.484753,1.62678 v -6.66626 z m 135.57312,4.19354 -3.03082,6.08541 10.48049,2.0097 0.55036,-1.10484 v -5.456 z m -150.29987,0.25011 -3.030823,6.08542 10.480498,2.00918 3.030822,-6.08542 z m 38.254513,0.0672 c 0.0038,1.87018 0.0065,2.32663 0,6.66678 l 6.770646,1.29811 3.030306,-6.08542 z m 42.498697,0.88212 v 6.66677 l 1.8464,0.35399 3.03082,-6.08594 z m 54.81939,3.24424 -3.0303,6.0849 10.48101,2.00918 3.02979,-6.0849 z m -37.57445,0.062 -3.03082,6.08541 9.31209,1.78542 c 0.5451,-0.15314 1.0629,-0.33328 1.55185,-0.5457 l 2.52026,-5.06016 v -0.27957 z m -37.574965,0.062 -3.030822,6.08593 3.350183,0.64234 c 2.973608,-0.56046 5.111316,-1.079 5.111316,-1.079 v -4.60799 z m -72.123246,0.70538 v 6.66626 l 4.422469,0.84801 3.030306,-6.08542 z m 94.970431,3.67523 -0.85473,1.71617 c 1.84186,0.5173 5.56308,1.46855 10.45569,2.05983 l 0.87954,-1.7663 z m -37.575485,0.063 -1.71049,3.43494 c 3.517195,0.46937 7.772441,0.17401 11.650452,-0.33952 l 0.541052,-1.08624 z m 112.605015,0.0558 -2.90938,5.84203 2.90938,0.55758 v -5.25032 z m -150.179465,0.006 -3.030823,6.08541 10.480497,2.00918 3.030823,-6.08541 z m 118.305955,0.88263 v 0.26045 l -0.001,5.2e-4 h 0.001 v 6.40581 l 1.86862,0.35811 3.03082,-6.08541 z m -106.245193,0.03 -0.363802,0.73019 0.363802,0.0698 z m 123.511843,3.28094 -3.03031,6.08542 10.4805,2.00969 3.03031,-6.08593 z m -150.299355,0.24908 -3.030823,6.08542 10.481014,2.00969 3.030306,-6.08541 z m 135.572605,4.19354 -2.54403,5.10925 c -7.7e-4,0.39869 -0.0223,0.69752 -0.0289,1.06453 l 10.02316,1.92133 3.03031,-6.08541 z m -112.724387,0.18707 -3.030823,6.08593 7.042464,1.35031 c -0.0398,-0.81511 -0.07234,-1.65374 -0.07235,-2.66185 v -4.01888 z m -27.941964,1.90996 v 1.86087 l 0.845943,-1.6986 z m 163.514571,2.28358 -3.03031,6.08594 8.91884,1.70997 c 0.3266,-2.09817 0.53513,-4.27311 0.56534,-6.55826 z m -150.300907,0.2496 -3.030306,6.08593 10.480497,2.00918 3.030306,-6.08541 z m 135.573117,4.19406 -3.03082,6.08542 10.4805,2.00918 3.03082,-6.08542 z m -148.688596,0.5581 c 0.102888,2.38202 0.315183,4.62474 0.596863,6.78099 l 5.242057,1.0051 3.030306,-6.08593 z m 21.236947,4.07159 -3.030306,6.08542 10.479464,2.00918 3.030306,-6.08542 z m 12.425081,0.17983 -0.728637,1.46296 10.480497,2.00918 1.067635,-2.14405 h -2.073775 c -4.556994,0 -7.221494,-0.007 -8.74572,-1.32809 z m 102.444398,0.0444 c -0.69127,0.57816 -1.65376,0.8753 -2.87166,1.04903 l -2.30322,4.62504 10.48049,2.00969 3.03031,-6.08593 z m -78.076376,1.28364 -2.248442,4.51549 10.480498,2.00918 3.030306,-6.08542 -2.291333,-0.43925 z m 12.513965,0 -0.03566,0.0718 10.480497,2.0097 1.036629,-2.08153 z m 25.029481,0 -2.21692,4.45244 10.4805,2.0097 3.0303,-6.08542 -1.96473,-0.37672 z m 12.51448,0 -0.005,0.01 10.4805,2.00969 1.00562,-2.01951 z m 48.72209,2.68562 -3.03082,6.08542 10.4805,2.0097 3.03082,-6.08542 z m -37.57497,0.062 -3.0303,6.08594 10.47946,2.00918 3.03031,-6.08542 z m -37.575997,0.0625 -3.030823,6.08594 10.4805,2.00918 3.03082,-6.08542 z m -37.574968,0.0625 -3.030306,6.08542 10.480497,2.00918 3.030306,-6.08542 z m -37.574967,0.0625 -3.030306,6.0849 10.480497,2.0097 3.030306,-6.0849 z m 135.573122,4.19303 -3.03083,6.08541 10.48102,2.0097 3.0303,-6.08542 z m -37.57497,0.063 -3.03082,6.08542 10.48049,2.00918 3.03083,-6.08542 z m -37.574967,0.062 -3.030823,6.08542 10.481014,2.0097 3.030306,-6.08594 z m -37.574968,0.0625 -3.030306,6.0849 10.480498,2.0097 3.030306,-6.0849 z m 97.997635,4.25607 -3.0303,6.08542 10.48049,2.00918 3.03031,-6.08542 z m -37.57445,0.062 -3.03082,6.08542 10.4805,2.0097 3.03082,-6.08594 z m -37.575484,0.0625 -3.029789,6.0849 10.480497,2.0097 3.02979,-6.0849 z m -37.57445,0.0625 -3.030823,6.08542 10.479464,2.00918 3.030822,-6.08542 z m 135.572604,4.19354 -3.03031,6.08542 5.47926,1.05058 c 2.43341,-1.54677 4.67392,-3.33871 6.67556,-5.38675 z m -37.57497,0.062 -3.0303,6.08541 10.47946,2.00918 3.03082,-6.08542 z m -37.575999,0.0625 -3.02979,6.0849 10.480498,2.0097 3.029789,-6.0849 z m -37.574451,0.062 -3.030823,6.08593 10.480497,2.00918 3.030823,-6.08542 z m -31.850252,1.16013 c 0.916184,1.53734 1.961997,2.92819 3.121256,4.19354 l 1.634526,-3.28197 z m 129.847892,3.09594 -3.03031,6.08541 8.70386,1.66864 c 0.76586,-0.21237 1.53353,-0.42125 2.27997,-0.67025 l 2.52697,-5.07462 z m -37.57497,0.0625 -3.03031,6.0849 10.4805,2.0097 3.03031,-6.0849 z m -37.574969,0.062 -3.030306,6.08593 10.480497,2.00918 3.030306,-6.08542 z m -37.574451,0.0625 -3.030822,6.08541 10.480497,2.00918 3.030823,-6.08542 z m 97.99764,4.25607 -2.57039,5.16092 h 9.22528 c 0.77523,0 1.53424,-0.0574 2.30063,-0.0894 l 1.52497,-3.06183 z m -37.574971,0.0625 -2.538863,5.0984 h 11.480954 l 1.53841,-3.08922 z m -37.574968,0.062 -2.507857,5.03638 h 11.480953 l 1.507402,-3.0272 z m -30.514416,1.41645 c 0.96698,0.5152 1.987152,0.97417 3.058211,1.37976 l 0.360702,-0.72451 z m 90.937605,2.90215 -0.3576,0.71778 h 4.10155 z m -37.576004,0.062 -0.326595,0.65577 h 3.747058 z m -37.574968,0.0625 -0.271818,0.54622 c 0.401355,0.009 0.773559,0.047 1.183907,0.047 h 2.181779 z" /></g><g
       id="g1390"
       inkscape:label="Logo_Light"
       style="display:inline"><path
         id="path1390"
         style="display:inline;fill:#e73c00;fill-opacity:1;fill-rule:nonzero;stroke:#000000;stroke-width:0.5;stroke-miterlimit:4;stroke-dasharray:none;stroke-opacity:1;filter:url(#filter1390)"
         d="m 45.379092,40.269817 c -22.875546,0 -31.546965,14.316945 -31.866372,39.674064 h -0.0148 v 0.65164 89.674119 c 0,25.79095 8.808382,40.00013 31.881193,40.00013 h 95.620497 c 23.07433,0 42.49851,-14.20918 42.49831,-40.00013 v -12.45403 -19.86132 c 0,-12.88928 -15.64323,-37.87573 -31.874,-37.87573 h -9.037 c -11.267,0 -15.15761,6.57408 -22.69272,14.69007 l 0.001,0.006 c -0.0962,0.10321 -0.1937,0.20023 -0.28989,0.30386 -7.53506,-8.11599 -9.83715,-14.9996 -21.104133,-14.9996 -23.072817,0 -35.048624,12.09716 -35.048624,37.87571 0,0 0.04536,2.3152 0,19.86132 5.593294,5.59329 27.599355,0 27.599355,0 l -5.3e-4,-19.86132 c -2.65e-4,-10.00515 -1.495937,-15.37632 7.449541,-15.37632 8.954961,0 7.449281,5.37118 7.449541,15.37632 l 5.1e-4,19.86132 c 0,0 21.09369,6.50496 27.59879,-1.3e-4 l 1.2e-4,-19.86132 c 0.12328,-10.00449 0.0821,-14.31786 9.03704,-14.31786 8.94548,0 9.03726,4.31283 9.037,14.31799 l 2.1e-4,19.86119 -5.5e-4,1.3e-4 h 5.5e-4 v 12.45402 c 2e-5,10.00691 -1.67796,10.00042 -10.62499,10.00042 H 56.003702 c -8.945419,0 -10.624419,0.006 -10.624441,-10.00042 l -5.44e-4,-89.674427 c 0,-10.006907 1.679566,-10.325468 10.624985,-10.325468 h 84.995908 c 8.94703,0 0.61753,9.999906 10.62444,9.999906 h 31.87387 c 0,-25.79096 -19.42398,-40.000142 -42.49831,-40.000142 z"
         sodipodi:nodetypes="scccsssccssscccsscccsscccsccccsssccssscss"
         inkscape:label="MG_Light" /><path
         id="path1391"
         style="display:inline;opacity:1;fill:#333333;stroke:#000000;stroke-width:0.50317;stroke-opacity:1;paint-order:stroke markers fill;filter:url(#filter1390)"
         inkscape:label="Pattern"
         d="m 53.740941,40.269792 -1.56993,3.151746 10.480497,2.009179 2.570386,-5.160925 z m 19.894393,0 3.74344,0.717786 0.357601,-0.717786 z m 17.649051,0 -1.53789,3.0887 10.480495,2.009697 2.53887,-5.098397 z m 20.251475,0 3.41788,0.655257 0.32608,-0.655257 z m 17.29249,0 -1.5074,3.026689 10.48049,2.009696 2.50838,-5.036385 z m -88.799234,0.327629 c -0.520075,0.05929 -1.03475,0.123826 -1.537374,0.201021 l 1.312065,0.251664 z m 75.595904,1.056266 -3.03082,6.085417 10.48049,2.009696 3.03083,-6.085417 z m 37.52897,0.02945 -2.98483,5.99395 10.4805,2.009696 2.20865,-4.435388 c -3.02609,-1.533043 -6.26927,-2.74371 -9.70432,-3.568258 z m -75.104456,0.03359 -3.030306,6.085417 10.480498,2.009179 3.030822,-6.085416 z m -37.57445,0.06201 -3.030823,6.085416 10.481014,2.009697 3.030306,-6.085933 z m 97.998156,4.255554 -3.03083,6.085933 10.4805,2.00918 3.03082,-6.085417 z m -37.57549,0.06305 -3.030304,6.085417 10.479464,2.00918 3.03031,-6.085417 z m -37.575482,0.06201 -3.030823,6.085417 10.480497,2.009179 3.030823,-6.085416 z m -37.574967,0.06201 -3.030306,6.085416 10.480497,2.009697 3.030306,-6.085417 z m 135.572599,4.193542 -3.0303,6.085417 10.4805,2.009696 3.03082,-6.085416 z m -37.57496,0.06304 -3.03031,6.085417 10.4805,2.00918 3.0303,-6.085417 z m -37.574971,0.06201 -3.030306,6.085417 10.480497,2.00918 3.030823,-6.085417 z m -37.574451,0.06201 -3.030822,6.085417 10.481014,2.009696 3.030306,-6.085417 z m -28.767753,1.751314 c -1.164195,1.834697 -2.155124,3.867164 -2.979146,6.095235 l 1.621606,0.311092 3.030823,-6.085416 z m 126.765385,2.505274 -3.0303,6.085416 10.4805,2.00918 3.0303,-6.085417 z m -37.57496,0.06201 -3.03031,6.085417 10.4805,2.009696 3.0303,-6.085933 z m -37.574454,0.06201 -3.030823,6.085417 10.480498,2.009696 3.030822,-6.085417 z m -37.575484,0.06305 -3.030306,6.085417 10.480497,2.00918 3.030306,-6.085417 z m 135.573118,4.193543 -3.03082,6.085416 10.48101,2.00918 2.64429,-5.310787 c -0.15321,-0.318061 -0.31513,-0.62858 -0.47646,-0.939994 z m -37.57497,0.06201 -3.0303,6.085417 10.4805,2.009697 3.0303,-6.085417 z m -37.574963,0.06201 -3.030306,6.085934 10.479459,2.009179 3.03083,-6.085933 z m -37.576001,0.06253 -3.030306,6.085933 10.480497,2.00918 3.030306,-6.085417 z m -37.574967,0.06253 -3.030306,6.085417 10.480497,2.00918 3.030823,-6.085417 z m 135.573121,4.193543 -3.03031,6.085416 10.4805,2.00918 3.03031,-6.085417 z m -37.57497,0.06201 -3.0303,6.085417 2.29856,0.4408 h 8.96328 l 2.24896,-4.51652 z m -37.574966,0.06253 -3.030306,6.085933 1.970422,0.377755 h 9.322429 l 2.217952,-4.453992 z m -37.574968,0.06253 -3.030306,6.085417 8.512142,1.631942 c 0.662044,-0.524084 1.55731,-0.821664 2.65927,-1.010275 l 2.339392,-4.697904 z m -27.179736,2.0557 c -0.02091,0.109806 -0.04732,0.213032 -0.0677,0.323494 l 0.152962,-0.306958 z m 162.75286,2.137854 -3.03083,6.085416 8.75554,1.678968 c -0.22281,-2.427778 -0.66667,-4.711442 -1.23972,-6.904488 z m -37.57497,0.06201 -1.06867,2.145605 h 2.08153 c 4.88725,0 4.64737,2.971411 5.02915,5.67924 l 1.40818,0.270268 3.03031,-6.085417 z m -37.57497,0.06305 -1.03714,2.08256 h 11.48095 l 0.0367,-0.07338 z m -37.574966,0.06201 -1.00614,2.020549 h 11.480953 l 0.0057,-0.01137 z m -37.574967,0.06253 -3.030306,6.0849 10.480497,2.009696 3.030306,-6.0849 z m 135.573123,4.193026 -3.03083,6.085416 8.75864,1.679484 h 1.88671 l 2.86597,-5.755204 z M 13.864305,73.009912 c -0.17947,2.115151 -0.304075,4.299998 -0.340031,6.601148 l 6.460071,1.238684 3.030306,-6.085417 z m 134.242965,3.938261 -0.94878,1.904794 c 0.78753,0.84957 2.10613,1.416967 4.46536,1.416967 h 6.31021 l 0.65371,-1.312064 z m -112.724899,0.187069 -3.030822,6.085933 10.481014,2.00918 2.56005,-5.140771 c 0.0026,-0.374037 0.01964,-0.683439 0.02791,-1.029395 z m -14.726749,4.44314 -3.030306,6.085416 10.480497,2.00918 3.030306,-6.085417 z m 22.847184,4.380611 -3.030823,6.085417 4.906677,0.940511 v -6.66626 z m -30.004887,1.513603 v 6.402193 l 2.910417,-5.844088 z m 15.27762,2.929536 -3.030306,6.085417 10.480498,2.009697 3.030306,-6.085417 z m -14.726749,4.442623 -0.550871,1.106393 v 5.454962 l 8.001062,1.53376 3.030306,-6.085418 z m 22.847184,4.380612 -3.030306,6.085413 10.480497,2.0097 1.032495,-2.07378 v -4.39456 z m 112.208136,0.853173 -2.51251,5.04569 10.4805,2.00918 2.53783,-5.09581 c -2.60193,-1.21566 -5.2819,-1.95906 -7.98608,-1.95906 z m -51.101272,0.0176 c -3.663588,0.0287 -7.027775,0.38357 -10.119795,1.03818 l 8.765873,1.68052 z m 36.883542,1.32654 c -0.76806,0.30128 -1.50129,0.64461 -2.19935,1.03559 l 1.53685,0.29456 z m -50.34887,0.58136 c -3.176683,0.98505 -5.998557,2.36163 -8.465633,4.13256 l 5.849256,1.1219 z m 50.35662,1.47743 -3.03031,6.08541 10.4805,2.00918 3.0303,-6.08541 z m -37.574971,0.0625 -3.030823,6.08541 10.481014,2.0097 3.03031,-6.08593 z m -75.149935,0.12454 -3.030306,6.08541 10.480498,2.00918 3.030306,-6.08541 z m 87.507836,0.19172 -0.66042,1.32601 2.52181,0.48369 c -0.60557,-0.63677 -1.21658,-1.26414 -1.86139,-1.8097 z m 48.06528,4.00182 -3.0303,6.08542 10.4805,2.00918 3.0303,-6.08542 z m -75.14993,0.12454 -3.030306,6.08593 10.480497,2.00918 3.030306,-6.08541 z m -37.574968,0.0625 -3.030306,6.08541 3.391524,0.65009 v -6.66626 z m 80.171338,0.83819 c -1.59415,1.74307 -3.25351,3.66674 -5.11855,5.68544 l 7.54682,1.44694 3.03082,-6.08542 z m -111.690861,0.38551 v 6.66626 l 1.394747,0.26768 3.030306,-6.08542 z m 156.007011,0.0997 -0.0656,0.13229 0.231,0.0444 c -0.0557,-0.0581 -0.10941,-0.11901 -0.16537,-0.17673 z m -26.48985,2.93264 -3.03031,6.08541 10.4805,2.0097 3.03031,-6.08542 z m -37.57445,0.0625 -3.03083,6.08541 10.4805,2.00918 3.03082,-6.08541 z m -75.150971,0.12454 -3.030823,6.08541 10.481014,2.0097 3.030306,-6.08593 z m 39.368656,0.28112 c -1.221262,1.82039 -2.263259,3.84183 -3.124357,6.06733 l 8.78086,1.68361 3.030306,-6.08541 z m 48.033245,0.12247 -0.55501,1.11414 1.84124,0.35295 c -0.44588,-0.49541 -0.87355,-0.98366 -1.28623,-1.46709 z m 48.17174,3.78995 -3.03031,6.08542 10.47946,2.00969 3.03031,-6.08593 z m -37.57549,0.062 -3.03082,6.08542 10.4805,2.00969 3.03082,-6.08541 z m -37.574966,0.0625 -3.030306,6.08542 5.39657,1.03456 c 1.129088,-0.88618 2.826623,-1.35186 5.421891,-1.35186 0.288836,0 0.53713,0.0209 0.804602,0.032 l 1.887739,-3.79098 z m -75.149935,0.12454 -2.06499,4.14703 v 2.12339 l 9.515181,1.82469 3.030306,-6.08541 z m 135.572601,4.19354 -2.06757,4.1522 c 0.75485,0.62424 1.29271,1.43201 1.66553,2.43758 l 7.85223,1.50534 3.03031,-6.08542 z m -37.57445,0.0625 -3.03082,6.08542 10.4805,2.00918 3.03082,-6.08542 z m -37.575482,0.0625 -3.030306,6.08542 10.480497,2.00969 3.030306,-6.08541 z m -37.574451,0.062 -3.030823,6.08593 9.998873,1.91668 -5.17e-4,-6.66626 z m 135.572603,4.19354 -3.03031,6.08594 10.4805,2.00918 1.04128,-2.09083 c -0.41721,-1.51452 -0.93377,-3.07617 -1.58802,-4.68034 z m -150.300903,0.25012 -3.029789,6.0849 10.480497,2.00918 3.029789,-6.0849 z m 40.780973,0.55139 c -0.379502,2.05148 -0.667711,4.20664 -0.826823,6.50864 l 5.071009,0.97204 3.030822,-6.08542 z m 41.19283,0.632 c 0.39981,1.70563 0.4102,4.06881 0.35554,6.73447 l 0.27182,0.0522 3.0303,-6.08541 z m 53.60035,3.00963 -3.03031,6.08542 10.47947,2.00918 3.0303,-6.08542 z m -37.576,0.0625 -3.03031,6.08542 10.4805,2.00969 3.03031,-6.08593 z m -37.574968,0.062 -3.030306,6.08542 9.975619,1.91306 v -0.1204 c -6.6e-5,-2.47865 -0.09089,-4.66532 -0.09302,-6.56394 z m 49.765438,0.59015 -0.49299,0.99012 0.36483,0.0698 c 0.0296,-0.37988 0.0864,-0.70846 0.12816,-1.05988 z m -120.373531,0.40566 v 6.66677 l 2.90835,0.55759 3.030306,-6.08593 z m 31.881258,1.38079 -1.878438,3.77135 1.878438,0.36018 z m 136.724983,1.87947 -3.0303,6.08542 4.42402,0.84801 v -3.31194 c 0,-1.05818 -0.14163,-2.21974 -0.34417,-3.42046 z m -75.14993,0.12454 -0.98185,1.97146 c -0.008,0.54536 -0.0217,0.94976 -0.0217,1.52601 v 2.97707 l 8.45375,1.62058 3.03031,-6.08542 z m -37.574967,0.0631 -3.030306,6.0849 10.480497,2.00918 3.030306,-6.0849 z m -37.574968,0.062 -3.030306,6.08542 10.480497,2.00969 3.030306,-6.08541 z m 119.806125,1.17099 c 0.005,0.71912 0.0135,1.41212 0.0134,2.20142 v 4.46742 l 0.35554,0.0682 3.0303,-6.08542 z m 15.767,3.02255 -3.03083,6.08542 10.48102,2.0097 3.0303,-6.08542 z m -37.57497,0.062 -3.03031,6.08593 6.77788,1.29914 v -6.66626 z m -112.725938,0.18706 -3.030306,6.08542 10.480497,2.0097 3.030306,-6.08542 z m 46.375981,1.62523 c 0.0018,0.16116 -0.0028,3.16897 0,3.69486 l 1.679484,-3.37292 z m 27.598832,0.61236 -1.854151,3.72329 1.854151,0.35553 z m 61.599345,1.95647 -1.02682,2.06138 5.2e-4,4.40851 8.47545,1.62471 3.03031,-6.08542 z m -37.57601,0.0625 -3.0303,6.0849 10.4805,2.00918 3.0303,-6.0849 z m -37.574963,0.062 -3.030306,6.08542 10.480497,2.0097 3.030306,-6.08594 z m -37.574967,0.062 -3.030306,6.08541 8.484753,1.62678 v -6.66626 z m 135.57312,4.19354 -3.03082,6.08541 10.48049,2.0097 0.55036,-1.10484 v -5.456 z m -150.29987,0.25011 -3.030823,6.08542 10.480498,2.00918 3.030822,-6.08542 z m 38.254513,0.0672 c 0.0038,1.87018 0.0065,2.32663 0,6.66678 l 6.770646,1.29811 3.030306,-6.08542 z m 42.498697,0.88212 v 6.66677 l 1.8464,0.35399 3.03082,-6.08594 z m 54.81939,3.24424 -3.0303,6.0849 10.48101,2.00918 3.02979,-6.0849 z m -37.57445,0.062 -3.03082,6.08541 9.31209,1.78542 c 0.5451,-0.15314 1.0629,-0.33328 1.55185,-0.5457 l 2.52026,-5.06016 v -0.27957 z m -37.574965,0.062 -3.030822,6.08593 3.350183,0.64234 c 2.973608,-0.56046 5.111316,-1.079 5.111316,-1.079 v -4.60799 z m -72.123246,0.70538 v 6.66626 l 4.422469,0.84801 3.030306,-6.08542 z m 94.970431,3.67523 -0.85473,1.71617 c 1.84186,0.5173 5.56308,1.46855 10.45569,2.05983 l 0.87954,-1.7663 z m -37.575485,0.063 -1.71049,3.43494 c 3.517195,0.46937 7.772441,0.17401 11.650452,-0.33952 l 0.541052,-1.08624 z m 112.605015,0.0558 -2.90938,5.84203 2.90938,0.55758 v -5.25032 z m -150.179465,0.006 -3.030823,6.08541 10.480497,2.00918 3.030823,-6.08541 z m 118.305955,0.88263 v 0.26045 l -0.001,5.2e-4 h 0.001 v 6.40581 l 1.86862,0.35811 3.03082,-6.08541 z m -106.245193,0.03 -0.363802,0.73019 0.363802,0.0698 z m 123.511843,3.28094 -3.03031,6.08542 10.4805,2.00969 3.03031,-6.08593 z m -150.299355,0.24908 -3.030823,6.08542 10.481014,2.00969 3.030306,-6.08541 z m 135.572605,4.19354 -2.54403,5.10925 c -7.7e-4,0.39869 -0.0223,0.69752 -0.0289,1.06453 l 10.02316,1.92133 3.03031,-6.08541 z m -112.724387,0.18707 -3.030823,6.08593 7.042464,1.35031 c -0.0398,-0.81511 -0.07234,-1.65374 -0.07235,-2.66185 v -4.01888 z m -27.941964,1.90996 v 1.86087 l 0.845943,-1.6986 z m 163.514571,2.28358 -3.03031,6.08594 8.91884,1.70997 c 0.3266,-2.09817 0.53513,-4.27311 0.56534,-6.55826 z m -150.300907,0.2496 -3.030306,6.08593 10.480497,2.00918 3.030306,-6.08541 z m 135.573117,4.19406 -3.03082,6.08542 10.4805,2.00918 3.03082,-6.08542 z m -148.688596,0.5581 c 0.102888,2.38202 0.315183,4.62474 0.596863,6.78099 l 5.242057,1.0051 3.030306,-6.08593 z m 21.236947,4.07159 -3.030306,6.08542 10.479464,2.00918 3.030306,-6.08542 z m 12.425081,0.17983 -0.728637,1.46296 10.480497,2.00918 1.067635,-2.14405 h -2.073775 c -4.556994,0 -7.221494,-0.007 -8.74572,-1.32809 z m 102.444398,0.0444 c -0.69127,0.57816 -1.65376,0.8753 -2.87166,1.04903 l -2.30322,4.62504 10.48049,2.00969 3.03031,-6.08593 z m -78.076376,1.28364 -2.248442,4.51549 10.480498,2.00918 3.030306,-6.08542 -2.291333,-0.43925 z m 12.513965,0 -0.03566,0.0718 10.480497,2.0097 1.036629,-2.08153 z m 25.029481,0 -2.21692,4.45244 10.4805,2.0097 3.0303,-6.08542 -1.96473,-0.37672 z m 12.51448,0 -0.005,0.01 10.4805,2.00969 1.00562,-2.01951 z m 48.72209,2.68562 -3.03082,6.08542 10.4805,2.0097 3.03082,-6.08542 z m -37.57497,0.062 -3.0303,6.08594 10.47946,2.00918 3.03031,-6.08542 z m -37.575997,0.0625 -3.030823,6.08594 10.4805,2.00918 3.03082,-6.08542 z m -37.574968,0.0625 -3.030306,6.08542 10.480497,2.00918 3.030306,-6.08542 z m -37.574967,0.0625 -3.030306,6.0849 10.480497,2.0097 3.030306,-6.0849 z m 135.573122,4.19303 -3.03083,6.08541 10.48102,2.0097 3.0303,-6.08542 z m -37.57497,0.063 -3.03082,6.08542 10.48049,2.00918 3.03083,-6.08542 z m -37.574967,0.062 -3.030823,6.08542 10.481014,2.0097 3.030306,-6.08594 z m -37.574968,0.0625 -3.030306,6.0849 10.480498,2.0097 3.030306,-6.0849 z m 97.997635,4.25607 -3.0303,6.08542 10.48049,2.00918 3.03031,-6.08542 z m -37.57445,0.062 -3.03082,6.08542 10.4805,2.0097 3.03082,-6.08594 z m -37.575484,0.0625 -3.029789,6.0849 10.480497,2.0097 3.02979,-6.0849 z m -37.57445,0.0625 -3.030823,6.08542 10.479464,2.00918 3.030822,-6.08542 z m 135.572604,4.19354 -3.03031,6.08542 5.47926,1.05058 c 2.43341,-1.54677 4.67392,-3.33871 6.67556,-5.38675 z m -37.57497,0.062 -3.0303,6.08541 10.47946,2.00918 3.03082,-6.08542 z m -37.575999,0.0625 -3.02979,6.0849 10.480498,2.0097 3.029789,-6.0849 z m -37.574451,0.062 -3.030823,6.08593 10.480497,2.00918 3.030823,-6.08542 z m -31.850252,1.16013 c 0.916184,1.53734 1.961997,2.92819 3.121256,4.19354 l 1.634526,-3.28197 z m 129.847892,3.09594 -3.03031,6.08541 8.70386,1.66864 c 0.76586,-0.21237 1.53353,-0.42125 2.27997,-0.67025 l 2.52697,-5.07462 z m -37.57497,0.0625 -3.03031,6.0849 10.4805,2.0097 3.03031,-6.0849 z m -37.574969,0.062 -3.030306,6.08593 10.480497,2.00918 3.030306,-6.08542 z m -37.574451,0.0625 -3.030822,6.08541 10.480497,2.00918 3.030823,-6.08542 z m 97.99764,4.25607 -2.57039,5.16092 h 9.22528 c 0.77523,0 1.53424,-0.0574 2.30063,-0.0894 l 1.52497,-3.06183 z m -37.574971,0.0625 -2.538863,5.0984 h 11.480954 l 1.53841,-3.08922 z m -37.574968,0.062 -2.507857,5.03638 h 11.480953 l 1.507402,-3.0272 z m -30.514416,1.41645 c 0.96698,0.5152 1.987152,0.97417 3.058211,1.37976 l 0.360702,-0.72451 z m 90.937605,2.90215 -0.3576,0.71778 h 4.10155 z m -37.576004,0.062 -0.326595,0.65577 h 3.747058 z m -37.574968,0.0625 -0.271818,0.54622 c 0.401355,0.009 0.773559,0.047 1.183907,0.047 h 2.181779 z" /></g></g></svg>
